P3
16 16
255
   0   0   0 
   0   0 127 
   0   0 131 
   0   0 135 
   0   0 139 
   0   0 143 
   0   0 147 
   0   0 151 
   0   0 155 
   0   0 159 
   0   0 163 
   0   0 167 
   0   0 171 
   0   0 175 
   0   0 179 
   0   0 183 
   0   0 187 
   0   0 191 
   0   0 195 
   0   0 199 
   0   0 203 
   0   0 207 
   0   0 211 
   0   0 215 
   0   0 219 
   0   0 223 
   0   0 227 
   0   0 231 
   0   0 235 
   0   0 239 
   0   0 243 
   0   0 247 
   0   0 251 
   0   0 255 
   0   3 255 
   0   7 255 
   0  11 255 
   0  15 255 
   0  19 255 
   0  23 255 
   0  27 255 
   0  31 255 
   0  35 255 
   0  39 255 
   0  43 255 
   0  47 255 
   0  51 255 
   0  55 255 
   0  59 255 
   0  63 255 
   0  67 255 
   0  71 255 
   0  75 255 
   0  79 255 
   0  83 255 
   0  87 255 
   0  91 255 
   0  95 255 
   0  99 255 
   0 103 255 
   0 107 255 
   0 111 255 
   0 115 255 
   0 119 255 
   0 123 255 
   0 127 255 
   0 131 255 
   0 135 255 
   0 139 255 
   0 143 255 
   0 147 255 
   0 151 255 
   0 155 255 
   0 159 255 
   0 163 255 
   0 167 255 
   0 171 255 
   0 175 255 
   0 179 255 
   0 183 255 
   0 187 255 
   0 191 255 
   0 195 255 
   0 199 255 
   0 203 255 
   0 207 255 
   0 211 255 
   0 215 255 
   0 219 255 
   0 223 255 
   0 227 255 
   0 231 255 
   0 235 255 
   0 239 255 
   0 243 255 
   0 247 255 
   0 251 255 
   0 255 255 
   3 252 252 
   7 248 248 
  11 244 244 
  15 240 240 
  19 236 236 
  23 232 232 
  27 228 228 
  31 224 224 
  35 220 220 
  39 216 216 
  43 212 212 
  47 208 208 
  51 204 204 
  55 200 200 
  59 196 196 
  63 192 192 
  67 188 188 
  71 184 184 
  75 180 180 
  79 176 176 
  83 172 172 
  87 168 168 
  91 164 164 
  95 160 160 
  99 156 156 
 103 152 152 
 107 148 148 
 111 144 144 
 115 140 140 
 119 136 136 
 128 128 128 
 128 128 128 
 128 128 128 
 132 132 123 
 136 136 119 
 140 140 115 
 144 144 111 
 148 148 107 
 152 152 103 
 156 156  99 
 160 160  95 
 164 164  91 
 168 168  87 
 172 172  83 
 176 176  79 
 180 180  75 
 184 184  71 
 188 188  67 
 192 192  63 
 196 196  59 
 200 200  55 
 204 204  51 
 208 208  47 
 212 212  43 
 216 216  39 
 220 220  35 
 224 224  31 
 228 228  27 
 232 232  23 
 236 236  19 
 240 240  15 
 244 244  11 
 248 248   7 
 252 252   3 
 255 252   0 
 255 248   0 
 255 244   0 
 255 240   0 
 255 236   0 
 255 232   0 
 255 228   0 
 255 224   0 
 255 220   0 
 255 216   0 
 255 212   0 
 255 208   0 
 255 204   0 
 255 200   0 
 255 196   0 
 255 192   0 
 255 188   0 
 255 184   0 
 255 180   0 
 255 176   0 
 255 172   0 
 255 168   0 
 255 164   0 
 255 160   0 
 255 156   0 
 255 152   0 
 255 148   0 
 255 144   0 
 255 140   0 
 255 136   0 
 255 132   0 
 255 128   0 
 255 124   0 
 255 120   0 
 255 116   0 
 255 112   0 
 255 108   0 
 255 104   0 
 255 100   0 
 255  96   0 
 255  92   0 
 255  88   0 
 255  84   0 
 255  80   0 
 255  76   0 
 255  72   0 
 255  68   0 
 255  64   0 
 255  60   0 
 255  56   0 
 255  52   0 
 255  48   0 
 255  44   0 
 255  40   0 
 255  36   0 
 255  32   0 
 255  28   0 
 255  24   0 
 255  20   0 
 255  16   0 
 255  12   0 
 255   8   0 
 255   4   0 
 255   0   0 
 251   0   0 
 247   0   0 
 243   0   0 
 239   0   0 
 235   0   0 
 231   0   0 
 227   0   0 
 223   0   0 
 219   0   0 
 215   0   0 
 211   0   0 
 207   0   0 
 203   0   0 
 199   0   0 
 195   0   0 
 191   0   0 
 187   0   0 
 183   0   0 
 179   0   0 
 175   0   0 
 171   0   0 
 167   0   0 
 163   0   0 
 159   0   0 
 155   0   0 
 151   0   0 
 147   0   0 
 143   0   0 
 139   0   0 
 135   0   0 
